<svg width="31" height="36" viewBox="0 0 31 36" fill="none" xmlns="http://www.w3.org/2000/svg">
<path d="M0 5.39891C0 2.41717 2.41717 0 5.39891 0C8.38064 0 10.7978 2.41717 10.7978 5.39891V33.7432C4.83434 33.7432 0 28.9088 0 22.9454V5.39891Z" fill="#F55E80"/>
<path d="M10.7978 24.2949L10.7978 35.0927L7.99998 35.0927C3.5817 35.0927 -2.32036e-05 31.511 -2.30105e-05 27.0927L-2.28882e-05 24.2949L10.7978 24.2949Z" fill="#0075FF"/>
<rect x="28.6142" y="4.04932" width="13.7672" height="13.7672" rx="6.88361" transform="rotate(90 28.6142 4.04932)" fill="#00E082"/>
<path d="M25.4761 24.2949C28.4578 24.2949 30.875 26.7121 30.875 29.6938C30.875 32.6756 28.4578 35.0927 25.4761 35.0927L10.7978 35.0927L10.7978 24.2949L25.4761 24.2949Z" fill="#FAFFC5"/>
</svg>
